<svg width="22" height="21" viewBox="0 0 22 21" fill="none" xmlns="http://www.w3.org/2000/svg">
<path d="M5.86987 13.2815L8.86301 9.39137L12.2772 12.0733L15.2062 8.29297" stroke="#1A73E8" stroke-width="1.5" stroke-linecap="round" stroke-linejoin="round"/>
<path d="M18.6204 4.62247C19.682 4.62247 20.5426 3.76187 20.5426 2.70027C20.5426 1.63867 19.682 0.77807 18.6204 0.77807C17.5588 0.77807 16.6982 1.63867 16.6982 2.70027C16.6982 3.76187 17.5588 4.62247 18.6204 4.62247Z" stroke="#1A73E8" stroke-width="1.5" stroke-linecap="round" stroke-linejoin="round"/>
<path d="M13.5495 1.62012H6.2818C3.27036 1.62012 1.40308 3.75284 1.40308 6.76428V14.8467C1.40308 17.8581 3.23374 19.9817 6.2818 19.9817H14.8859C17.8973 19.9817 19.7646 17.8581 19.7646 14.8467V7.80776" stroke="#1A73E8" stroke-width="1.5" stroke-linecap="round" stroke-linejoin="round"/>
</svg>
