<svg width="20" height="21" viewBox="0 0 20 21" fill="none" xmlns="http://www.w3.org/2000/svg">
<path d="M7.01873 19.2821V16.2152C7.01872 15.4381 7.65067 14.8067 8.43344 14.8018H11.3076C12.0939 14.8018 12.7313 15.4346 12.7313 16.2152V19.2732C12.7312 19.9473 13.279 20.4951 13.9579 20.5H15.9188C16.8346 20.5023 17.7138 20.1428 18.3622 19.5007C19.0106 18.8586 19.375 17.9868 19.375 17.0775V8.36585C19.375 7.63139 19.0471 6.93471 18.4796 6.4635L11.818 1.17427C10.6535 0.249123 8.99037 0.279008 7.86039 1.24538L1.34201 6.4635C0.747741 6.92082 0.392552 7.61956 0.375 8.36585V17.0686C0.375 18.9637 1.92238 20.5 3.83117 20.5H5.74729C6.07417 20.5023 6.38849 20.3751 6.62047 20.1464C6.85246 19.9178 6.98293 19.6067 6.98292 19.2821H7.01873Z" fill="#ADB4BD"/>
</svg>
