<svg width="21" height="20" viewBox="0 0 21 20" fill="none" xmlns="http://www.w3.org/2000/svg">
<path d="M1.1251 0.75L3.2051 1.11L4.1681 12.583C4.2451 13.52 5.0281 14.239 5.9681 14.236H16.8771C17.7741 14.238 18.5351 13.578 18.6621 12.69L19.6111 6.132C19.7171 5.399 19.2081 4.719 18.4761 4.613C18.4121 4.604 3.5391 4.599 3.5391 4.599" stroke="#ADB4BD" stroke-width="1.5" stroke-linecap="round" stroke-linejoin="round"/>
<path d="M12.5001 8.29492H15.2731" stroke="#ADB4BD" stroke-width="1.5" stroke-linecap="round" stroke-linejoin="round"/>
<path fill-rule="evenodd" clip-rule="evenodd" d="M5.5294 17.7026C5.8304 17.7026 6.0734 17.9466 6.0734 18.2466C6.0734 18.5476 5.8304 18.7916 5.5294 18.7916C5.2284 18.7916 4.9854 18.5476 4.9854 18.2466C4.9854 17.9466 5.2284 17.7026 5.5294 17.7026Z" fill="#ADB4BD" stroke="#ADB4BD" stroke-width="1.5" stroke-linecap="round" stroke-linejoin="round"/>
<path fill-rule="evenodd" clip-rule="evenodd" d="M16.8097 17.7026C17.1107 17.7026 17.3547 17.9466 17.3547 18.2466C17.3547 18.5476 17.1107 18.7916 16.8097 18.7916C16.5087 18.7916 16.2657 18.5476 16.2657 18.2466C16.2657 17.9466 16.5087 17.7026 16.8097 17.7026Z" fill="#ADB4BD" stroke="#ADB4BD" stroke-width="1.5" stroke-linecap="round" stroke-linejoin="round"/>
</svg>
