<svg width="295" height="241" viewBox="0 0 295 241" fill="none" xmlns="http://www.w3.org/2000/svg">
<g filter="url(#filter0_d)">
<path d="M78 104.696C78 88.5574 78 80.4881 83.1891 76.0014C88.3782 71.5146 96.3629 72.6799 112.332 75.0105L191.332 86.5397C203.573 88.3261 209.693 89.2193 213.347 93.4446C217 97.6698 217 103.855 217 116.225V127C217 141.142 217 148.213 212.607 152.607C208.213 157 201.142 157 187 157H108C93.8579 157 86.7868 157 82.3934 152.607C78 148.213 78 141.142 78 127V104.696Z" fill="white"/>
</g>
<path d="M132.823 118.889C132.823 122.022 131.954 124.441 130.217 126.148C128.479 127.855 126.031 128.708 122.872 128.708C121.635 128.708 120.582 128.542 119.713 128.211V132.796C119.713 134.273 118.989 134.987 117.541 134.936H116.672C115.33 134.936 114.382 134.713 113.829 134.267C113.276 133.822 113 133.026 113 131.879V113.539C113 112.902 113.132 112.367 113.395 111.934C113.658 111.501 114.092 111.081 114.698 110.674C115.514 110.139 116.534 109.725 117.758 109.432C119.084 109.127 120.443 108.98 121.806 108.992C125.254 108.992 127.887 109.795 129.704 111.399C131.783 113.157 132.823 115.654 132.823 118.889ZM122.043 114.074C121.216 114.077 120.403 114.273 119.673 114.648V123.053C120.489 123.41 121.227 123.588 121.885 123.588C124.596 123.588 125.952 122.022 125.952 118.889C125.952 115.679 124.649 114.074 122.043 114.074H122.043Z" fill="#1A73E8"/>
<path d="M140.095 128.367C139.683 128.65 139.17 128.779 138.558 128.753H137.68C136.322 128.753 135.357 128.521 134.785 128.058C134.213 127.594 133.926 126.795 133.926 125.662V111.715C133.926 110.839 134.126 110.259 134.525 109.976C134.925 109.693 135.444 109.551 136.083 109.551L136.961 109.59C138.319 109.59 139.284 109.821 139.856 110.285C140.428 110.748 140.714 111.547 140.714 112.68V126.628C140.714 127.504 140.508 128.083 140.095 128.367Z" fill="#1A73E8"/>
<path d="M141.759 127.768L142.192 127.51C143.125 126.908 143.591 125.909 143.591 124.512V111.357C143.591 110.626 143.758 110.142 144.091 109.906C144.424 109.669 144.858 109.551 145.391 109.551L146.124 109.583C147.257 109.583 148.062 109.777 148.54 110.164C149.017 110.55 149.256 111.217 149.256 112.163V125.028C149.256 126.833 148.829 128.284 147.973 129.38C147.118 130.477 145.958 131.025 144.492 131.025C143.871 131.037 143.259 130.88 142.725 130.573C142.221 130.279 141.825 129.84 141.592 129.316C141.469 129.075 141.401 128.811 141.393 128.542C141.392 128.198 141.514 127.94 141.759 127.768Z" fill="#1A73E8"/>
<path d="M167.514 116.067V124.043C167.528 124.543 167.38 125.034 167.09 125.449C166.808 125.841 166.348 126.214 165.71 126.57C164.141 127.496 161.896 127.959 158.977 127.959C156.253 127.959 154.15 127.467 152.666 126.482C151.182 125.496 150.44 124.054 150.439 122.155C150.439 120.518 150.942 119.26 151.948 118.381C152.954 117.503 154.512 116.957 156.621 116.743L161.442 116.245V115.996C161.442 114.714 160.228 114.073 157.799 114.073C156.744 114.073 155.53 114.239 154.156 114.571C153.665 114.69 153.31 114.749 153.089 114.749C152.862 114.757 152.637 114.706 152.437 114.603C152.237 114.5 152.068 114.348 151.948 114.162C151.678 113.77 151.543 113.29 151.543 112.72C151.543 112.103 151.684 111.616 151.966 111.26C152.249 110.904 152.733 110.584 153.42 110.299C154.696 109.8 156.45 109.551 158.682 109.551C161.528 109.551 163.711 110.103 165.232 111.207C166.753 112.31 167.513 113.93 167.514 116.067ZM161.479 123.081V120.233L158.829 120.446C157.259 120.541 156.474 121.04 156.474 121.942C156.474 123.01 157.308 123.544 158.976 123.544C159.463 123.544 159.95 123.503 160.43 123.42C160.908 123.336 161.258 123.224 161.479 123.081Z" fill="#1A73E8"/>
<path d="M174.666 128.369C174.217 128.66 173.682 128.799 173.144 128.765L172.363 128.727C171.037 128.727 170.094 128.501 169.535 128.048C168.976 127.595 168.696 126.815 168.696 125.707V114.383C168.696 113.376 169.073 112.558 169.828 111.929C170.582 111.3 171.804 110.721 173.495 110.193C174.939 109.778 176.436 109.562 177.942 109.551C180.647 109.551 182 110.545 182 112.533C182 112.835 181.987 113.011 181.961 113.062C181.857 113.942 181.154 114.446 179.854 114.572C179.008 114.649 178.168 114.775 177.338 114.949C176.493 115.126 175.823 115.314 175.329 115.515V126.651C175.329 127.507 175.108 128.079 174.666 128.369Z" fill="#1A73E8"/>
<path d="M143.553 97.0014V101.273C142.911 101.571 142.294 101.917 141.707 102.307C139.376 100.386 137.32 100.521 137.32 100.521C139.778 96.8244 143.553 97.0014 143.553 97.0014Z" fill="#FFC555"/>
<path d="M141.707 102.307C137.822 104.897 137.326 108.277 137.326 108.277L137.32 100.521C137.32 100.521 139.376 100.386 141.707 102.307Z" fill="url(#paint0_linear)"/>
<path d="M131.088 97.0014V101.273C131.73 101.571 132.347 101.917 132.934 102.307C135.265 100.386 137.32 100.521 137.32 100.521C134.863 96.8244 131.088 97.0014 131.088 97.0014Z" fill="#FFC555"/>
<path d="M132.934 102.307C136.819 104.897 137.315 108.277 137.315 108.277L137.32 100.521C137.32 100.521 135.265 100.386 132.934 102.307Z" fill="#F6931E"/>
<path d="M123.855 136.345C123.382 136.345 123.015 136.19 122.754 135.881V136.123C122.754 136.166 122.737 136.203 122.705 136.234C122.678 136.265 122.639 136.28 122.588 136.28H122.045C121.999 136.28 121.96 136.265 121.928 136.234C121.895 136.203 121.879 136.166 121.879 136.123V131.789C121.879 131.741 121.895 131.704 121.928 131.678C121.96 131.647 121.999 131.632 122.045 131.632H122.63C122.68 131.632 122.719 131.647 122.747 131.678C122.779 131.704 122.795 131.741 122.795 131.789V133.242C123.056 132.954 123.41 132.81 123.855 132.81C124.318 132.81 124.674 132.954 124.922 133.242C125.169 133.531 125.303 133.904 125.321 134.362C125.325 134.414 125.328 134.484 125.328 134.571C125.328 134.663 125.325 134.735 125.321 134.787C125.303 135.259 125.169 135.636 124.922 135.92C124.674 136.203 124.318 136.345 123.855 136.345ZM123.6 135.645C124.096 135.645 124.36 135.355 124.392 134.774C124.396 134.731 124.399 134.665 124.399 134.578C124.399 134.491 124.396 134.425 124.392 134.381C124.36 133.801 124.096 133.511 123.6 133.511C123.343 133.511 123.146 133.589 123.008 133.747C122.875 133.899 122.804 134.085 122.795 134.303L122.788 134.552L122.795 134.807C122.809 135.043 122.88 135.241 123.008 135.403C123.137 135.564 123.334 135.645 123.6 135.645Z" fill="#F79844"/>
<path d="M127.483 136.345C126.973 136.345 126.567 136.206 126.264 135.926C125.966 135.643 125.808 135.246 125.789 134.735L125.782 134.571L125.789 134.408C125.812 133.91 125.973 133.52 126.271 133.236C126.574 132.952 126.978 132.81 127.483 132.81C128.024 132.81 128.442 132.968 128.735 133.282C129.034 133.596 129.183 134.015 129.183 134.539V134.676C129.183 134.72 129.167 134.757 129.134 134.787C129.102 134.818 129.061 134.833 129.011 134.833H126.725V134.886C126.735 135.126 126.803 135.328 126.932 135.494C127.065 135.656 127.246 135.736 127.476 135.736C127.746 135.736 127.964 135.636 128.13 135.435C128.171 135.387 128.203 135.357 128.226 135.344C128.253 135.331 128.292 135.324 128.343 135.324H128.935C128.976 135.324 129.011 135.337 129.038 135.363C129.07 135.385 129.086 135.414 129.086 135.448C129.086 135.553 129.02 135.678 128.887 135.822C128.758 135.961 128.572 136.083 128.329 136.188C128.086 136.293 127.804 136.345 127.483 136.345ZM128.247 134.283V134.264C128.247 134.006 128.178 133.799 128.04 133.642C127.907 133.485 127.721 133.406 127.483 133.406C127.244 133.406 127.058 133.485 126.925 133.642C126.792 133.799 126.725 134.006 126.725 134.264V134.283H128.247Z" fill="#F79844"/>
<path d="M129.932 136.28C129.887 136.28 129.848 136.265 129.815 136.234C129.783 136.203 129.767 136.166 129.767 136.123V131.789C129.767 131.741 129.783 131.704 129.815 131.678C129.848 131.647 129.887 131.632 129.932 131.632H130.504C130.554 131.632 130.593 131.647 130.621 131.678C130.653 131.704 130.669 131.741 130.669 131.789V136.123C130.669 136.166 130.653 136.203 130.621 136.234C130.593 136.265 130.554 136.28 130.504 136.28H129.932Z" fill="#F79844"/>
<path d="M132.468 136.345C132.234 136.345 132.019 136.302 131.821 136.214C131.629 136.123 131.475 136.001 131.36 135.848C131.25 135.695 131.195 135.527 131.195 135.344C131.195 135.047 131.321 134.807 131.573 134.624C131.826 134.44 132.172 134.316 132.613 134.251L133.556 134.12V133.982C133.556 133.79 133.505 133.646 133.404 133.55C133.303 133.454 133.141 133.406 132.916 133.406C132.764 133.406 132.64 133.435 132.544 133.491C132.452 133.544 132.379 133.596 132.324 133.648C132.269 133.705 132.232 133.742 132.214 133.76C132.195 133.812 132.161 133.838 132.11 133.838H131.58C131.539 133.838 131.502 133.825 131.47 133.799C131.443 133.773 131.429 133.738 131.429 133.694C131.434 133.585 131.489 133.461 131.594 133.321C131.704 133.181 131.872 133.061 132.097 132.961C132.321 132.861 132.597 132.81 132.923 132.81C133.464 132.81 133.859 132.926 134.106 133.157C134.354 133.389 134.478 133.692 134.478 134.067V136.123C134.478 136.166 134.462 136.203 134.43 136.234C134.402 136.265 134.363 136.28 134.313 136.28H133.755C133.71 136.28 133.671 136.265 133.638 136.234C133.606 136.203 133.59 136.166 133.59 136.123V135.867C133.489 136.007 133.345 136.123 133.157 136.214C132.973 136.302 132.744 136.345 132.468 136.345ZM132.702 135.723C132.955 135.723 133.161 135.645 133.322 135.488C133.482 135.331 133.563 135.102 133.563 134.8V134.663L132.874 134.768C132.608 134.807 132.406 134.87 132.269 134.958C132.136 135.045 132.069 135.152 132.069 135.278C132.069 135.418 132.131 135.527 132.255 135.606C132.379 135.684 132.528 135.723 132.702 135.723Z" fill="#F79844"/>
<path d="M135.422 132.313C135.376 132.313 135.337 132.298 135.305 132.267C135.272 132.237 135.256 132.2 135.256 132.156V131.685C135.256 131.641 135.272 131.604 135.305 131.573C135.337 131.543 135.376 131.527 135.422 131.527H136.069C136.114 131.527 136.153 131.543 136.186 131.573C136.222 131.604 136.241 131.641 136.241 131.685V132.156C136.241 132.2 136.225 132.237 136.192 132.267C136.16 132.298 136.119 132.313 136.069 132.313H135.422ZM134.616 137.524C134.566 137.524 134.527 137.508 134.499 137.478C134.467 137.452 134.451 137.414 134.451 137.366V136.993C134.451 136.945 134.467 136.906 134.499 136.875C134.531 136.845 134.57 136.83 134.616 136.83H134.795C134.988 136.83 135.116 136.782 135.181 136.686C135.249 136.594 135.284 136.457 135.284 136.273V133.033C135.284 132.985 135.3 132.948 135.332 132.922C135.364 132.891 135.403 132.876 135.449 132.876H136.048C136.094 132.876 136.133 132.891 136.165 132.922C136.197 132.952 136.213 132.989 136.213 133.033V136.286C136.213 136.679 136.101 136.982 135.876 137.196C135.656 137.414 135.323 137.524 134.878 137.524H134.616Z" fill="#F79844"/>
<path d="M138.017 136.345C137.783 136.345 137.567 136.302 137.37 136.214C137.177 136.123 137.024 136.001 136.909 135.848C136.799 135.695 136.744 135.527 136.744 135.344C136.744 135.047 136.87 134.807 137.122 134.624C137.375 134.44 137.721 134.316 138.162 134.251L139.104 134.12V133.982C139.104 133.79 139.054 133.646 138.953 133.55C138.852 133.454 138.689 133.406 138.464 133.406C138.313 133.406 138.189 133.435 138.093 133.491C138.001 133.544 137.927 133.596 137.872 133.648C137.817 133.705 137.781 133.742 137.762 133.76C137.744 133.812 137.71 133.838 137.659 133.838H137.129C137.088 133.838 137.051 133.825 137.019 133.799C136.991 133.773 136.978 133.738 136.978 133.694C136.982 133.585 137.037 133.461 137.143 133.321C137.253 133.181 137.42 133.061 137.645 132.961C137.87 132.861 138.145 132.81 138.471 132.81C139.013 132.81 139.407 132.926 139.655 133.157C139.903 133.389 140.027 133.692 140.027 134.067V136.123C140.027 136.166 140.011 136.203 139.979 136.234C139.951 136.265 139.912 136.28 139.862 136.28H139.304C139.258 136.28 139.219 136.265 139.187 136.234C139.155 136.203 139.139 136.166 139.139 136.123V135.867C139.038 136.007 138.893 136.123 138.705 136.214C138.522 136.302 138.292 136.345 138.017 136.345ZM138.251 135.723C138.503 135.723 138.71 135.645 138.87 135.488C139.031 135.331 139.111 135.102 139.111 134.8V134.663L138.423 134.768C138.157 134.807 137.955 134.87 137.817 134.958C137.684 135.045 137.618 135.152 137.618 135.278C137.618 135.418 137.68 135.527 137.804 135.606C137.927 135.684 138.077 135.723 138.251 135.723Z" fill="#F79844"/>
<path d="M140.922 136.28C140.876 136.28 140.837 136.265 140.805 136.234C140.773 136.203 140.757 136.166 140.757 136.123V133.04C140.757 132.996 140.773 132.959 140.805 132.928C140.837 132.893 140.876 132.876 140.922 132.876H141.48C141.53 132.876 141.571 132.891 141.603 132.922C141.636 132.952 141.652 132.992 141.652 133.04V133.308C141.762 133.168 141.899 133.061 142.065 132.987C142.234 132.913 142.427 132.876 142.643 132.876H142.925C142.975 132.876 143.014 132.891 143.042 132.922C143.074 132.948 143.09 132.985 143.09 133.033V133.504C143.09 133.548 143.074 133.585 143.042 133.616C143.014 133.646 142.975 133.661 142.925 133.661H142.388C142.172 133.661 142.003 133.72 141.879 133.838C141.755 133.956 141.693 134.117 141.693 134.323V136.123C141.693 136.166 141.677 136.203 141.645 136.234C141.613 136.265 141.571 136.28 141.521 136.28H140.922Z" fill="#F79844"/>
<defs>
<filter id="filter0_d" x="0.13018" y="0.641285" width="294.74" height="239.791" filterUnits="userSpaceOnUse" color-interpolation-filters="sRGB">
<feFlood flood-opacity="0" result="BackgroundImageFix"/>
<feColorMatrix in="SourceAlpha" type="matrix" values="0 0 0 0 0 0 0 0 0 0 0 0 0 0 0 0 0 0 127 0"/>
<feOffset dy="5.56213"/>
<feGaussianBlur stdDeviation="38.9349"/>
<feColorMatrix type="matrix" values="0 0 0 0 0.770833 0 0 0 0 0.770833 0 0 0 0 0.770833 0 0 0 0.5 0"/>
<feBlend mode="normal" in2="BackgroundImageFix" result="effect1_dropShadow"/>
<feBlend mode="normal" in="SourceGraphic" in2="effect1_dropShadow" result="shape"/>
</filter>
<linearGradient id="paint0_linear" x1="140.543" y1="104.398" x2="137.542" y2="104.398" gradientUnits="userSpaceOnUse">
<stop stop-color="#F6931E"/>
<stop offset="0.304" stop-color="#F78E1E"/>
<stop offset="0.552" stop-color="#F9831E"/>
<stop offset="0.779" stop-color="#FB7A1E"/>
<stop offset="0.994" stop-color="#FF681E"/>
</linearGradient>
</defs>
</svg>
