<svg width="109" height="109" viewBox="0 0 109 109" fill="none" xmlns="http://www.w3.org/2000/svg">
<path d="M0 54.1087C0.582861 32.8926 0.874291 22.2845 6.07571 14.598C8.3478 11.2404 11.2404 8.3478 14.598 6.07571C22.2845 0.874291 32.8926 0.582861 54.1087 0C75.3248 0.582861 85.9329 0.874291 93.6193 6.07571C96.977 8.3478 99.8696 11.2404 102.142 14.598C107.343 22.2845 107.635 32.8926 108.217 54.1087C107.635 75.3248 107.343 85.9329 102.142 93.6193C99.8696 96.977 96.977 99.8696 93.6193 102.142C85.9329 107.343 75.3248 107.635 54.1087 108.217C32.8926 107.635 22.2845 107.343 14.598 102.142C11.2404 99.8696 8.3478 96.977 6.07571 93.6193C0.874291 85.9329 0.582861 75.3248 0 54.1087Z" fill="white"/>
<path d="M41.3359 55.054C41.3359 58.3779 40.4543 60.9453 38.6912 62.756C36.9281 64.5668 34.4435 65.472 31.2375 65.4716C29.9819 65.4716 28.9133 65.2959 28.0316 64.9446V69.8092C28.0316 71.3767 27.2969 72.1334 25.8276 72.0792H24.946C23.5835 72.0792 22.6218 71.8428 22.0607 71.3701C21.4997 70.8973 21.2192 70.0528 21.2192 68.8365V49.3784C21.2192 48.7028 21.3528 48.1353 21.6199 47.6759C21.887 47.2166 22.3278 46.7707 22.9423 46.3383C23.7705 45.7706 24.8057 45.3314 26.0481 45.0207C27.3936 44.6979 28.7729 44.5413 30.1557 44.5545C33.6554 44.5545 36.327 45.4057 38.1704 47.1082C40.2808 48.9731 41.336 51.6217 41.3359 55.054ZM30.3958 49.9461C29.5575 49.9487 28.7324 50.1576 27.9916 50.5546V59.4725C28.8197 59.8508 29.5678 60.0399 30.2357 60.0399C32.9873 60.0399 34.3632 58.3779 34.3633 55.054C34.3633 51.6486 33.0408 49.946 30.396 49.9461H30.3958Z" fill="#1A73E8"/>
<path d="M48.7162 65.1085C48.2975 65.409 47.7773 65.5456 47.1556 65.5184H46.2646C44.8868 65.5184 43.9075 65.2725 43.3268 64.7806C42.7461 64.2887 42.4557 63.4416 42.4556 62.2391V47.4416C42.4556 46.5124 42.6582 45.8975 43.0635 45.5969C43.4687 45.2962 43.9955 45.1459 44.6438 45.146L45.5352 45.1869C46.913 45.1869 47.8923 45.4328 48.473 45.9246C49.0538 46.4164 49.3442 47.2636 49.3443 48.4661V63.2636C49.3443 64.1929 49.1349 64.8079 48.7162 65.1085Z" fill="#1A73E8"/>
<path d="M50.4043 64.4737L50.8439 64.2C51.7907 63.5614 52.2641 62.5009 52.2641 61.0187V47.0617C52.2641 46.2863 52.4332 45.7731 52.7714 45.5223C53.1096 45.2714 53.5492 45.1459 54.0903 45.146L54.8342 45.1802C55.984 45.1802 56.8012 45.3854 57.2859 45.7959C57.7705 46.2063 58.0129 46.9133 58.0129 47.9168V61.566C58.0129 63.4816 57.579 65.021 56.7111 66.1841C55.8432 67.3473 54.6654 67.9288 53.1776 67.9286C52.5478 67.9412 51.927 67.7753 51.3854 67.4498C50.8733 67.138 50.4711 66.6712 50.2355 66.1156C50.1101 65.86 50.0409 65.5799 50.0327 65.2946C50.0324 64.9297 50.1563 64.6561 50.4043 64.4737Z" fill="#1A73E8"/>
<path d="M76.5411 52.0589V60.5208C76.5553 61.0514 76.4052 61.5732 76.1116 62.0131C75.8253 62.4286 75.3585 62.8252 74.7112 63.2029C73.1181 64.1851 70.8402 64.6762 67.8775 64.6762C65.114 64.6762 62.9794 64.1537 61.4735 63.1085C59.9677 62.0633 59.2145 60.5334 59.2139 58.5187C59.2139 56.7811 59.7242 55.4464 60.7449 54.5145C61.7656 53.5826 63.3465 53.0033 65.4875 52.7768L70.3794 52.2479V51.9835C70.3794 50.6236 69.1471 49.9436 66.6825 49.9435C65.6119 49.9435 64.3796 50.1198 62.9855 50.4724C62.4876 50.5984 62.1266 50.6613 61.9026 50.6613C61.6725 50.6692 61.4445 50.6157 61.2413 50.5063C61.0381 50.397 60.867 50.2355 60.7449 50.0381C60.471 49.6225 60.3341 49.1125 60.3341 48.5081C60.3341 47.8534 60.4772 47.3372 60.7635 46.9593C61.0498 46.5815 61.5415 46.2415 62.2385 45.9394C63.5331 45.4105 65.3131 45.146 67.5786 45.146C70.4665 45.146 72.6821 45.7315 74.2257 46.9025C75.7692 48.0736 76.541 49.7924 76.5411 52.0589ZM70.4168 59.5011V56.4789L67.7281 56.7055C66.1348 56.8062 65.3381 57.3352 65.3381 58.2923C65.3381 59.4255 66.1845 59.9921 67.8771 59.9922C68.3717 59.9924 68.8653 59.9482 69.3521 59.86C69.8378 59.7717 70.1928 59.652 70.4168 59.5011Z" fill="#1A73E8"/>
<path d="M83.7989 65.1107C83.3441 65.4195 82.8011 65.5673 82.2545 65.5312L81.4628 65.4912C80.1167 65.4912 79.1599 65.2509 78.5923 64.7704C78.0248 64.2899 77.741 63.4621 77.7412 62.2872V50.2723C77.7412 49.2043 78.1239 48.3366 78.8894 47.6692C79.6549 47.0019 80.8953 46.3877 82.6109 45.8268C84.0763 45.3866 85.5956 45.1574 87.1242 45.146C89.8694 45.1459 91.242 46.2006 91.242 48.31C91.242 48.6304 91.2288 48.8172 91.2025 48.8705C91.0967 49.805 90.3841 50.339 89.0645 50.4726C88.2062 50.555 87.3535 50.6888 86.5109 50.8734C85.6531 51.0603 84.9734 51.2605 84.4719 51.474V63.2881C84.4719 64.1962 84.2476 64.8037 83.7989 65.1107Z" fill="#1A73E8"/>
<path d="M52.2245 31.8315V36.3636C51.5732 36.6799 50.9469 37.0467 50.3515 37.4607C47.9858 35.4224 45.8999 35.566 45.8999 35.566C48.3937 31.6438 52.2245 31.8315 52.2245 31.8315Z" fill="#FFC555"/>
<path d="M50.3514 37.4605C46.4087 40.2082 45.9053 43.795 45.9053 43.795L45.8999 35.5657C45.8999 35.5657 47.9858 35.4221 50.3514 37.4605Z" fill="url(#paint0_linear)"/>
<path d="M39.5752 31.8315V36.3636C40.2266 36.6799 40.8528 37.0467 41.4483 37.4607C43.8139 35.4224 45.8999 35.566 45.8999 35.566C43.406 31.6438 39.5752 31.8315 39.5752 31.8315Z" fill="#FFC555"/>
<path d="M41.4482 37.4605C45.391 40.2082 45.8944 43.795 45.8944 43.795L45.8999 35.5657C45.8999 35.5657 43.8139 35.4221 41.4482 37.4605Z" fill="#F6931E"/>
<path d="M32.2347 73.5734C31.7551 73.5734 31.3825 73.409 31.1171 73.0803V73.3373C31.1171 73.3836 31.1008 73.4229 31.0682 73.4553C31.0402 73.4877 31.0007 73.5039 30.9494 73.5039H30.3976C30.3511 73.5039 30.3115 73.4877 30.2789 73.4553C30.2463 73.4229 30.23 73.3836 30.23 73.3373V68.7397C30.23 68.6888 30.2463 68.6494 30.2789 68.6216C30.3115 68.5892 30.3511 68.573 30.3976 68.573H30.9914C31.0426 68.573 31.0822 68.5892 31.1101 68.6216C31.1427 68.6494 31.159 68.6888 31.159 68.7397V70.2815C31.4244 69.9759 31.783 69.8231 32.2347 69.8231C32.705 69.8231 33.0659 69.9759 33.3174 70.2815C33.5688 70.5871 33.7039 70.9829 33.7225 71.4691C33.7272 71.5246 33.7295 71.5987 33.7295 71.6913C33.7295 71.7885 33.7272 71.8649 33.7225 71.9205C33.7039 72.4205 33.5688 72.821 33.3174 73.122C33.0659 73.4229 32.705 73.5734 32.2347 73.5734ZM31.9762 72.8303C32.4792 72.8303 32.7469 72.5224 32.7795 71.9066C32.7842 71.8603 32.7865 71.7909 32.7865 71.6983C32.7865 71.6057 32.7842 71.5362 32.7795 71.4899C32.7469 70.8741 32.4792 70.5662 31.9762 70.5662C31.7155 70.5662 31.5152 70.6496 31.3755 70.8162C31.2405 70.9783 31.1683 71.1751 31.159 71.4066L31.152 71.6705L31.159 71.9413C31.173 72.1913 31.2451 72.402 31.3755 72.5733C31.5059 72.7446 31.7062 72.8303 31.9762 72.8303Z" fill="#F79844"/>
<path d="M35.9162 73.5734C35.3993 73.5734 34.9872 73.4252 34.6799 73.1289C34.3772 72.828 34.2165 72.4066 34.1979 71.8649L34.1909 71.6913L34.1979 71.5177C34.2212 70.9899 34.3842 70.5755 34.6869 70.2745C34.9942 69.9736 35.404 69.8231 35.9162 69.8231C36.4657 69.8231 36.8895 69.9898 37.1875 70.3232C37.4902 70.6565 37.6415 71.101 37.6415 71.6566V71.8024C37.6415 71.8487 37.6252 71.8881 37.5926 71.9205C37.56 71.9529 37.5181 71.9691 37.4669 71.9691H35.1479V72.0247C35.1572 72.2793 35.227 72.4946 35.3574 72.6705C35.4925 72.8418 35.6764 72.9275 35.9092 72.9275C36.184 72.9275 36.4052 72.821 36.5728 72.608C36.6147 72.5571 36.6473 72.5247 36.6706 72.5108C36.6986 72.4969 36.7381 72.49 36.7894 72.49H37.3901C37.432 72.49 37.4669 72.5039 37.4948 72.5316C37.5274 72.5548 37.5437 72.5849 37.5437 72.6219C37.5437 72.733 37.4762 72.865 37.3412 73.0178C37.2108 73.1659 37.0222 73.2956 36.7754 73.4067C36.5286 73.5178 36.2422 73.5734 35.9162 73.5734ZM36.6916 71.3857V71.3649C36.6916 71.0917 36.6217 70.8718 36.482 70.7051C36.347 70.5384 36.1584 70.4551 35.9162 70.4551C35.6741 70.4551 35.4855 70.5384 35.3504 70.7051C35.2154 70.8718 35.1479 71.0917 35.1479 71.3649V71.3857H36.6916Z" fill="#F79844"/>
<path d="M38.4024 73.5039C38.3558 73.5039 38.3162 73.4877 38.2836 73.4553C38.251 73.4229 38.2347 73.3836 38.2347 73.3373V68.7397C38.2347 68.6888 38.251 68.6494 38.2836 68.6216C38.3162 68.5892 38.3558 68.573 38.4024 68.573H38.9821C39.0334 68.573 39.073 68.5892 39.1009 68.6216C39.1335 68.6494 39.1498 68.6888 39.1498 68.7397V73.3373C39.1498 73.3836 39.1335 73.4229 39.1009 73.4553C39.073 73.4877 39.0334 73.5039 38.9821 73.5039H38.4024Z" fill="#F79844"/>
<path d="M40.9759 73.5734C40.7384 73.5734 40.5195 73.5271 40.3193 73.4345C40.1237 73.3373 39.9677 73.2076 39.8513 73.0456C39.7395 72.8835 39.6836 72.7053 39.6836 72.5108C39.6836 72.196 39.8117 71.9413 40.0678 71.7469C40.3239 71.5524 40.6755 71.4205 41.1226 71.351L42.0795 71.2121V71.0663C42.0795 70.8625 42.0283 70.7098 41.9258 70.6079C41.8234 70.506 41.6581 70.4551 41.4299 70.4551C41.2762 70.4551 41.1505 70.4852 41.0527 70.5454C40.9596 70.601 40.8851 70.6565 40.8292 70.7121C40.7733 70.7723 40.736 70.8116 40.7174 70.8301C40.6988 70.8857 40.6639 70.9135 40.6126 70.9135H40.0748C40.0329 70.9135 39.9956 70.8996 39.963 70.8718C39.9351 70.844 39.9211 70.807 39.9211 70.7607C39.9258 70.6449 39.9817 70.513 40.0888 70.3648C40.2005 70.2167 40.3705 70.0893 40.5987 69.9829C40.8269 69.8764 41.1063 69.8231 41.4369 69.8231C41.9864 69.8231 42.3868 69.9458 42.6383 70.1912C42.8898 70.4366 43.0155 70.7584 43.0155 71.1565V73.3373C43.0155 73.3836 42.9992 73.4229 42.9666 73.4553C42.9387 73.4877 42.8991 73.5039 42.8479 73.5039H42.2821C42.2355 73.5039 42.1959 73.4877 42.1633 73.4553C42.1307 73.4229 42.1144 73.3836 42.1144 73.3373V73.0664C42.012 73.2146 41.8653 73.3373 41.6744 73.4345C41.4881 73.5271 41.2553 73.5734 40.9759 73.5734ZM41.2134 72.9136C41.4695 72.9136 41.679 72.8303 41.842 72.6636C42.005 72.4969 42.0865 72.2538 42.0865 71.9344V71.7885L41.388 71.8997C41.1179 71.9413 40.913 72.0085 40.7733 72.1011C40.6383 72.1937 40.5707 72.3071 40.5707 72.4414C40.5707 72.5895 40.6336 72.7053 40.7593 72.7886C40.8851 72.8719 41.0364 72.9136 41.2134 72.9136Z" fill="#F79844"/>
<path d="M43.9729 69.2953C43.9264 69.2953 43.8868 69.2791 43.8542 69.2467C43.8216 69.2143 43.8053 69.1749 43.8053 69.1286V68.6286C43.8053 68.5823 43.8216 68.5429 43.8542 68.5105C43.8868 68.4781 43.9264 68.4619 43.9729 68.4619H44.6295C44.6761 68.4619 44.7157 68.4781 44.7483 68.5105C44.7855 68.5429 44.8041 68.5823 44.8041 68.6286V69.1286C44.8041 69.1749 44.7878 69.2143 44.7552 69.2467C44.7226 69.2791 44.6807 69.2953 44.6295 69.2953H43.9729ZM43.1557 74.8235C43.1044 74.8235 43.0649 74.8073 43.0369 74.7749C43.0043 74.7471 42.988 74.7077 42.988 74.6568V74.2609C42.988 74.21 43.0043 74.1683 43.0369 74.1359C43.0695 74.1035 43.1091 74.0873 43.1557 74.0873H43.3373C43.5329 74.0873 43.6632 74.0364 43.7284 73.9345C43.7983 73.8373 43.8332 73.6914 43.8332 73.497V70.0592C43.8332 70.0083 43.8495 69.969 43.8821 69.9412C43.9147 69.9088 43.9543 69.8926 44.0009 69.8926H44.6086C44.6551 69.8926 44.6947 69.9088 44.7273 69.9412C44.7599 69.9736 44.7762 70.0129 44.7762 70.0592V73.5109C44.7762 73.9276 44.6621 74.2494 44.4339 74.4762C44.2104 74.7077 43.8728 74.8235 43.4211 74.8235H43.1557Z" fill="#F79844"/>
<path d="M46.6068 73.5734C46.3693 73.5734 46.1504 73.5271 45.9502 73.4345C45.7546 73.3373 45.5986 73.2076 45.4822 73.0456C45.3705 72.8835 45.3146 72.7053 45.3146 72.5108C45.3146 72.196 45.4426 71.9413 45.6987 71.7469C45.9549 71.5524 46.3064 71.4205 46.7535 71.351L47.7104 71.2121V71.0663C47.7104 70.8625 47.6592 70.7098 47.5568 70.6079C47.4543 70.506 47.289 70.4551 47.0608 70.4551C46.9072 70.4551 46.7814 70.4852 46.6836 70.5454C46.5905 70.601 46.516 70.6565 46.4601 70.7121C46.4042 70.7723 46.367 70.8116 46.3484 70.8301C46.3297 70.8857 46.2948 70.9135 46.2436 70.9135H45.7057C45.6638 70.9135 45.6266 70.8996 45.594 70.8718C45.566 70.844 45.5521 70.807 45.5521 70.7607C45.5567 70.6449 45.6126 70.513 45.7197 70.3648C45.8315 70.2167 46.0014 70.0893 46.2296 69.9829C46.4578 69.8764 46.7372 69.8231 47.0678 69.8231C47.6173 69.8231 48.0178 69.9458 48.2692 70.1912C48.5207 70.4366 48.6464 70.7584 48.6464 71.1565V73.3373C48.6464 73.3836 48.6301 73.4229 48.5975 73.4553C48.5696 73.4877 48.53 73.5039 48.4788 73.5039H47.913C47.8664 73.5039 47.8269 73.4877 47.7943 73.4553C47.7617 73.4229 47.7454 73.3836 47.7454 73.3373V73.0664C47.6429 73.2146 47.4962 73.3373 47.3053 73.4345C47.119 73.5271 46.8862 73.5734 46.6068 73.5734ZM46.8443 72.9136C47.1004 72.9136 47.31 72.8303 47.473 72.6636C47.6359 72.4969 47.7174 72.2538 47.7174 71.9344V71.7885L47.0189 71.8997C46.7488 71.9413 46.5439 72.0085 46.4042 72.1011C46.2692 72.1937 46.2017 72.3071 46.2017 72.4414C46.2017 72.5895 46.2645 72.7053 46.3903 72.7886C46.516 72.8719 46.6673 72.9136 46.8443 72.9136Z" fill="#F79844"/>
<path d="M49.555 73.5039C49.5084 73.5039 49.4688 73.4877 49.4362 73.4553C49.4036 73.4229 49.3873 73.3836 49.3873 73.3373V70.0662C49.3873 70.0199 49.4036 69.9805 49.4362 69.9481C49.4688 69.9111 49.5084 69.8926 49.555 69.8926H50.1208C50.172 69.8926 50.2139 69.9088 50.2465 69.9412C50.2791 69.9736 50.2954 70.0153 50.2954 70.0662V70.3509C50.4071 70.2028 50.5468 70.0893 50.7145 70.0106C50.8868 69.9319 51.0824 69.8926 51.3012 69.8926H51.5876C51.6388 69.8926 51.6784 69.9088 51.7064 69.9412C51.739 69.969 51.7553 70.0083 51.7553 70.0592V70.5593C51.7553 70.6056 51.739 70.6449 51.7064 70.6773C51.6784 70.7098 51.6388 70.726 51.5876 70.726H51.0428C50.8239 70.726 50.6516 70.7885 50.5259 70.9135C50.4002 71.0385 50.3373 71.2098 50.3373 71.4274V73.3373C50.3373 73.3836 50.321 73.4229 50.2884 73.4553C50.2558 73.4877 50.2139 73.5039 50.1627 73.5039H49.555Z" fill="#F79844"/>
<defs>
<linearGradient id="paint0_linear" x1="49.1699" y1="39.6792" x2="46.1252" y2="39.6792" gradientUnits="userSpaceOnUse">
<stop stop-color="#F6931E"/>
<stop offset="0.304" stop-color="#F78E1E"/>
<stop offset="0.552" stop-color="#F9831E"/>
<stop offset="0.779" stop-color="#FB7A1E"/>
<stop offset="0.994" stop-color="#FF681E"/>
</linearGradient>
</defs>
</svg>
